<svg id="Layer_1" data-name="Layer 1" xmlns="http://www.w3.org/2000/svg" viewBox="0 0 800 570"><defs><style>.cls-1{fill:#11b87a;}.cls-2{fill:#fff;}.cls-3{fill:#104740;}</style></defs><path class="cls-1" d="M114.17,90.06H363.82a0,0,0,0,1,0,0v95a25,25,0,0,1-25,25H89.17a0,0,0,0,1,0,0v-95A25,25,0,0,1,114.17,90.06Z"/><path class="cls-2" d="M154.45,179.79a5.93,5.93,0,1,0,6,5.88A5.95,5.95,0,0,0,154.45,179.79Z"/><path class="cls-2" d="M193.32,179.79a5.93,5.93,0,1,0,6,5.88A6,6,0,0,0,193.32,179.79Z"/><path class="cls-2" d="M208.94,179.79a5.93,5.93,0,1,0,6,5.88A6,6,0,0,0,208.94,179.79Z"/><path class="cls-2" d="M212.32,162.66H191A6.46,6.46,0,0,1,184.6,157v-24.7H174.35v24.61a5.79,5.79,0,0,1-5.71,5.8H137.82a7.62,7.62,0,0,1-7.65-7.65V140.23H119.92V155a17.84,17.84,0,0,0,17.9,17.81h31.91a14.29,14.29,0,0,0,10.34-4.53A15.8,15.8,0,0,0,191,172.82h31.5V132.25H212.32Z"/><path class="cls-2" d="M239.54,170.81c0,8.73-4.37,11.34-13.86,12.18l3.7,9.66c12.68-.76,20.24-8.57,20.24-21.84V132.25H239.54Z"/><path class="cls-2" d="M318.25,124.77a5.92,5.92,0,1,0-6-6A6,6,0,0,0,318.25,124.77Z"/><path class="cls-2" d="M323.12,162.66H298v-7.14a23.37,23.37,0,0,0-23.26-23.27h-7.56v10.16h7.56a13.12,13.12,0,0,1,13.1,13.11v7.14H257.68v10.16h75.6V132.25H323.12Z"/><path class="cls-2" d="M333.79,112.93a5.92,5.92,0,1,0,6,5.88A6,6,0,0,0,333.79,112.93Z"/><path class="cls-3" d="M500.62,330.06a44.88,44.88,0,0,0,2.57,15H455a36.08,36.08,0,0,0,.57-6.36V315.05h15v-30h-45V338.7a6.36,6.36,0,0,1-6.35,6.36H380.53V315h15V285h-45V388.86a61.26,61.26,0,0,1-61.2,61.2H278l15.94,29.88a91.31,91.31,0,0,0,86.61-91.08v-13.8H597.14v-90H545.62A45.05,45.05,0,0,0,500.62,330.06Zm66.52,15H545.62a15,15,0,0,1,0-30h21.52Z"/><path class="cls-3" d="M335.47,385.29V300.54h0V285H284a45,45,0,0,0,0,90h21.5v10.23a19.79,19.79,0,0,1-19.77,19.77H254l16,30H285.7A49.82,49.82,0,0,0,335.47,385.29Zm-30-40.23H284a15,15,0,0,1,0-30h21.5Z"/><path class="cls-3" d="M695.83,240.06h-30v52.55a23.89,23.89,0,0,1,15.25,11.49,27.31,27.31,0,0,1,3.65,11.59,23.57,23.57,0,0,0-18.91,23.1h0a36.28,36.28,0,0,1-23.69,34V357.36a19.1,19.1,0,0,1-4.7.92,9.67,9.67,0,0,1-2.74,0,3.83,3.83,0,0,1-2.31-1.4c-1-1.36-.57-3.21-.63-4.9a8.45,8.45,0,0,0-2.13-5.18,3.13,3.13,0,0,1-.89-1.29,2.49,2.49,0,0,1,.78-2,6.57,6.57,0,0,0,1-1.26c-.42-.26-.83-.51-1.23-.81a2,2,0,0,1-.93-1.26,1.87,1.87,0,0,1,.25-1c.41-.91.8-1.8,1.19-2.7a11,11,0,0,1-3.9-2.77,2.61,2.61,0,0,1-.83-1.76,3.1,3.1,0,0,1,1.13-1.83c2.65-2.62,5.14-5.62,6-9.27.66-2.95.15-6,.54-9,0-.21.26-1.08.59-2.19a24.47,24.47,0,0,1,8.85-12.92v-56.6h-30V345a30,30,0,0,0,24.13,29.41c-1.07.21-2.15.36-3.25.47h-.18c-1.07.1-2.16.15-3.26.15H612.14v30h17.43a66.25,66.25,0,0,0,66-61.13c.13-1.69.22-3.4.22-5.12V270.06h15v-30Z"/><path class="cls-3" d="M222.26,292.11,195.78,278l-7.1,13.32h0l-9.33,17.47A27.56,27.56,0,0,1,194,333.13v12H119.17v-12a27.55,27.55,0,0,1,14.6-24.35l-9.33-17.47h0L117.34,278,90.86,292.11l6.28,11.77a57.51,57.51,0,0,0-8,29.25v42H224v-42a57.52,57.52,0,0,0-8-29.25Z"/><circle class="cls-3" cx="156.56" cy="285.03" r="15.75"/><circle class="cls-3" cx="365.51" cy="254.31" r="15.75"/><circle class="cls-3" cx="548.88" cy="254.31" r="15.75"/><circle class="cls-3" cx="426.28" cy="405.06" r="15.75"/><circle class="cls-3" cx="465.28" cy="405.06" r="15.75"/></svg>